<svg xmlns="http://www.w3.org/2000/svg" width="21" height="45" viewBox="0 0 21 45">
  <g id="tempratur" transform="translate(-159 -382.999)">
    <g id="Union_5" data-name="Union 5" transform="translate(7164 2460)" fill="none">
      <path d="M-7005-2041a8.993,8.993,0,0,1,4.223-7.628v-23.623a4.75,4.75,0,0,1,4.75-4.75,4.751,4.751,0,0,1,4.75,4.75v23.589A8.993,8.993,0,0,1-6987-2041a9,9,0,0,1-9,9A9,9,0,0,1-7005-2041Z" stroke="none"/>
      <path d="M -6995.9990234375 -2033.000610351563 C -6991.58837890625 -2033.000610351563 -6988 -2036.589111328125 -6988 -2041 C -6988 -2042.389038085938 -6988.361328125 -2043.7568359375 -6989.044921875 -2044.95556640625 C -6989.70849609375 -2046.119262695313 -6990.662109375 -2047.106811523438 -6991.802734375 -2047.811279296875 L -6992.27734375 -2048.1044921875 L -6992.27734375 -2048.662109375 L -6992.27734375 -2072.250732421875 C -6992.27734375 -2074.318603515625 -6993.95947265625 -2076.000732421875 -6996.02734375 -2076.000732421875 C -6998.09521484375 -2076.000732421875 -6999.77734375 -2074.318603515625 -6999.77734375 -2072.250732421875 L -6999.77734375 -2048.6279296875 L -6999.77734375 -2048.074951171875 L -7000.24560546875 -2047.780883789063 C -7002.5966796875 -2046.305541992188 -7004.00048828125 -2043.770629882813 -7004.00048828125 -2041 C -7004.00048828125 -2036.589111328125 -7000.4111328125 -2033.000610351563 -6995.9990234375 -2033.000610351563 M -6995.9990234375 -2032.000610351563 C -7000.970703125 -2032.000610351563 -7005.00048828125 -2036.030029296875 -7005.00048828125 -2041 C -7005.00048828125 -2044.21484375 -7003.31396484375 -2047.0361328125 -7000.77734375 -2048.6279296875 L -7000.77734375 -2072.250732421875 C -7000.77734375 -2074.87353515625 -6998.65185546875 -2077.000732421875 -6996.02734375 -2077.000732421875 C -6993.404296875 -2077.000732421875 -6991.27734375 -2074.87353515625 -6991.27734375 -2072.250732421875 L -6991.27734375 -2048.662109375 C -6988.71044921875 -2047.076782226563 -6987 -2044.238159179688 -6987 -2041 C -6987 -2036.030029296875 -6991.029296875 -2032.000610351563 -6995.9990234375 -2032.000610351563 Z" stroke="none" fill="#fcfcf8"/>
    </g>
    <rect id="Rectangle_1618" data-name="Rectangle 1618" width="7" height="1.5" rx="0.75" transform="translate(173 387)" fill="#fff"/>
    <rect id="Rectangle_1619" data-name="Rectangle 1619" width="5" height="1.5" rx="0.75" transform="translate(173 390)" fill="#fff"/>
    <rect id="Rectangle_1620" data-name="Rectangle 1620" width="7" height="1.5" rx="0.75" transform="translate(173 393)" fill="#fff"/>
    <rect id="Rectangle_1621" data-name="Rectangle 1621" width="5" height="1.5" rx="0.75" transform="translate(173 396)" fill="#fff"/>
    <rect id="Rectangle_1622" data-name="Rectangle 1622" width="7" height="1.5" rx="0.75" transform="translate(173 399)" fill="#fff"/>
    <path id="Union_6" data-name="Union 6" d="M-6989-2070a6,6,0,0,1,4.028-5.669A2.008,2.008,0,0,1-6985-2076v-13a2,2,0,0,1,2-2,2,2,0,0,1,2,2v13a2.008,2.008,0,0,1-.027.332A6,6,0,0,1-6977-2070a6,6,0,0,1-6,6A6,6,0,0,1-6989-2070Z" transform="translate(7151 2489)" fill="#fff"/>
  </g>
</svg>
